<mxfile host="app.diagrams.net" agent="Mozilla/5.0 (Macintosh; Intel Mac OS X 10_15_7) AppleWebKit/605.1.15 (KHTML, like Gecko) Version/18.5 Safari/605.1.15" version="27.1.6">
  <diagram name="Page-1" id="aGFROf3UrSrFZ-4ZgrgD">
    <mxGraphModel dx="2201" dy="1129" grid="1" gridSize="6" guides="1" tooltips="1" connect="1" arrows="1" fold="1" page="1" pageScale="1" pageWidth="700" pageHeight="550" background="none" math="0" shadow="0">
      <root>
        <mxCell id="0" />
        <mxCell id="1" parent="0" />
        <mxCell id="tvYDaslGmQestlXSa17e-4" style="edgeStyle=orthogonalEdgeStyle;rounded=0;orthogonalLoop=1;jettySize=auto;html=1;entryX=0.5;entryY=0;entryDx=0;entryDy=0;" parent="1" source="tvYDaslGmQestlXSa17e-5" target="tvYDaslGmQestlXSa17e-6" edge="1">
          <mxGeometry relative="1" as="geometry" />
        </mxCell>
        <mxCell id="tvYDaslGmQestlXSa17e-5" value="&lt;p style=&quot;margin: 0px; font-width: normal; line-height: normal; font-family: Menlo; font-size-adjust: none; font-kerning: auto; font-variant-alternates: normal; font-variant-ligatures: normal; font-variant-numeric: normal; font-variant-east-asian: normal; font-variant-position: normal; font-feature-settings: normal; font-optical-sizing: auto; font-variation-settings: normal; color: rgb(11, 79, 121); background-color: rgb(255, 255, 255);&quot;&gt;NetworkingRoute&lt;/p&gt;&lt;div&gt;&lt;p style=&quot;margin: 0px; font-style: normal; font-variant-caps: normal; font-width: normal; line-height: normal; font-family: Menlo; font-size-adjust: none; font-kerning: auto; font-variant-alternates: normal; font-variant-ligatures: normal; font-variant-numeric: normal; font-variant-east-asian: normal; font-variant-position: normal; font-feature-settings: normal; font-optical-sizing: auto; font-variation-settings: normal; color: rgba(0, 0, 0, 0.85); background-color: rgb(255, 255, 255);&quot;&gt;&lt;span style=&quot;color: rgb(155, 35, 147);&quot;&gt;&lt;b&gt;var&lt;/b&gt;&lt;/span&gt; &lt;span style=&quot;color: rgb(15, 104, 160);&quot;&gt;run&lt;/span&gt;: ResponseSerializer.&lt;span style=&quot;color: rgb(28, 70, 74);&quot;&gt;SerializedObject&lt;/span&gt; {&amp;nbsp;&lt;span style=&quot;color: rgb(155, 35, 147);&quot;&gt;&lt;b&gt;get&lt;/b&gt;&lt;/span&gt;&amp;nbsp;&lt;span style=&quot;color: rgb(155, 35, 147);&quot;&gt;&lt;b&gt;async&lt;/b&gt;&lt;/span&gt;&amp;nbsp;&lt;span style=&quot;color: rgb(155, 35, 147);&quot;&gt;&lt;b&gt;throws&lt;/b&gt;&lt;/span&gt;&amp;nbsp;}&lt;/p&gt;&lt;/div&gt;" style="strokeWidth=2;html=1;shape=mxgraph.flowchart.start_1;whiteSpace=wrap;fillColor=light-dark(#FFFFFF,#121212);" parent="1" vertex="1">
          <mxGeometry x="501.25" y="6" width="527.5" height="110" as="geometry" />
        </mxCell>
        <mxCell id="z3iySmhylYlxjhsodRu1-71" style="edgeStyle=orthogonalEdgeStyle;shape=connector;rounded=0;jumpStyle=arc;jumpSize=12;orthogonalLoop=1;jettySize=auto;html=1;entryX=0.5;entryY=0;entryDx=0;entryDy=0;strokeColor=default;align=center;verticalAlign=middle;fontFamily=Helvetica;fontSize=11;fontColor=default;labelBackgroundColor=default;endArrow=classic;" edge="1" parent="1" source="tvYDaslGmQestlXSa17e-6" target="tvYDaslGmQestlXSa17e-7">
          <mxGeometry relative="1" as="geometry" />
        </mxCell>
        <mxCell id="tvYDaslGmQestlXSa17e-6" value="&lt;p style=&quot;margin: 0px; font-style: normal; font-variant-caps: normal; font-width: normal; line-height: normal; font-family: Menlo; font-size-adjust: none; font-kerning: auto; font-variant-alternates: normal; font-variant-ligatures: normal; font-variant-numeric: normal; font-variant-east-asian: normal; font-variant-position: normal; font-feature-settings: normal; font-optical-sizing: auto; font-variation-settings: normal; color: rgb(11, 79, 121); background-color: rgb(255, 255, 255);&quot;&gt;NetworkingRoute&lt;/p&gt;&lt;p style=&quot;margin: 0px; font-style: normal; font-variant-caps: normal; font-weight: normal; font-width: normal; font-size: 12px; line-height: normal; font-family: Menlo; font-size-adjust: none; font-kerning: auto; font-variant-alternates: normal; font-variant-ligatures: normal; font-variant-numeric: normal; font-variant-east-asian: normal; font-variant-position: normal; font-feature-settings: normal; font-optical-sizing: auto; font-variation-settings: normal; color: rgb(155, 35, 147); background-color: rgb(255, 255, 255);&quot;&gt;&lt;b&gt;var&lt;/b&gt;&lt;span style=&quot;color: rgba(0, 0, 0, 0.85);&quot;&gt; &lt;/span&gt;&lt;span style=&quot;color: rgb(15, 104, 160);&quot;&gt;urlRequest&lt;/span&gt;&lt;span style=&quot;color: rgba(0, 0, 0, 0.85);&quot;&gt;: &lt;/span&gt;&lt;span style=&quot;color: rgb(57, 0, 160);&quot;&gt;URLRequest&lt;/span&gt;&lt;span style=&quot;color: rgba(0, 0, 0, 0.85);&quot;&gt; { &lt;/span&gt;&lt;b&gt;get&lt;/b&gt;&lt;span style=&quot;color: rgba(0, 0, 0, 0.85);&quot;&gt; &lt;/span&gt;&lt;b&gt;throws&lt;/b&gt;&lt;span style=&quot;color: rgba(0, 0, 0, 0.85);&quot;&gt; }&lt;/span&gt;&lt;/p&gt;" style="rounded=1;whiteSpace=wrap;html=1;absoluteArcSize=1;arcSize=14;strokeWidth=2;fillColor=light-dark(#FFFFFF,#121212);" parent="1" vertex="1">
          <mxGeometry x="590" y="162" width="350" height="60" as="geometry" />
        </mxCell>
        <mxCell id="z3iySmhylYlxjhsodRu1-72" style="edgeStyle=orthogonalEdgeStyle;shape=connector;rounded=0;jumpStyle=arc;jumpSize=12;orthogonalLoop=1;jettySize=auto;html=1;entryX=0.5;entryY=0;entryDx=0;entryDy=0;strokeColor=default;align=center;verticalAlign=middle;fontFamily=Helvetica;fontSize=11;fontColor=default;labelBackgroundColor=default;endArrow=classic;exitX=0.75;exitY=1;exitDx=0;exitDy=0;dashed=1;" edge="1" parent="1" source="tvYDaslGmQestlXSa17e-7" target="tvYDaslGmQestlXSa17e-21">
          <mxGeometry relative="1" as="geometry">
            <Array as="points">
              <mxPoint x="887" y="354" />
              <mxPoint x="1145" y="354" />
            </Array>
          </mxGeometry>
        </mxCell>
        <mxCell id="z3iySmhylYlxjhsodRu1-73" style="edgeStyle=orthogonalEdgeStyle;shape=connector;rounded=0;jumpStyle=arc;jumpSize=12;orthogonalLoop=1;jettySize=auto;html=1;entryX=0.5;entryY=0;entryDx=0;entryDy=0;strokeColor=default;align=center;verticalAlign=middle;fontFamily=Helvetica;fontSize=11;fontColor=default;labelBackgroundColor=default;endArrow=classic;exitX=0.5;exitY=1;exitDx=0;exitDy=0;" edge="1" parent="1" source="tvYDaslGmQestlXSa17e-7" target="tvYDaslGmQestlXSa17e-23">
          <mxGeometry relative="1" as="geometry" />
        </mxCell>
        <mxCell id="tvYDaslGmQestlXSa17e-7" value="&lt;p style=&quot;margin: 0px; font-style: normal; font-variant-caps: normal; font-width: normal; line-height: normal; font-family: Menlo; font-size-adjust: none; font-kerning: auto; font-variant-alternates: normal; font-variant-ligatures: normal; font-variant-numeric: normal; font-variant-east-asian: normal; font-variant-position: normal; font-feature-settings: normal; font-optical-sizing: auto; font-variation-settings: normal; color: rgb(11, 79, 121); background-color: rgb(255, 255, 255);&quot;&gt;NetworkingAdapter&lt;/p&gt;&lt;p style=&quot;margin: 0px; font-style: normal; font-variant-caps: normal; font-width: normal; line-height: normal; font-family: Menlo; font-size-adjust: none; font-kerning: auto; font-variant-alternates: normal; font-variant-ligatures: normal; font-variant-numeric: normal; font-variant-east-asian: normal; font-variant-position: normal; font-feature-settings: normal; font-optical-sizing: auto; font-variation-settings: normal; color: rgb(57, 0, 160); background-color: rgb(255, 255, 255);&quot;&gt;&lt;span style=&quot;color: rgb(155, 35, 147);&quot;&gt;&lt;b&gt;func&lt;/b&gt;&lt;/span&gt;&lt;span style=&quot;color: rgba(0, 0, 0, 0.85);&quot;&gt; &lt;/span&gt;&lt;span style=&quot;color: rgb(15, 104, 160);&quot;&gt;adapt&lt;/span&gt;&lt;span style=&quot;color: rgba(0, 0, 0, 0.85);&quot;&gt;(&lt;/span&gt;&lt;span style=&quot;color: rgb(15, 104, 160);&quot;&gt;urlRequest&lt;/span&gt;&lt;span style=&quot;color: rgba(0, 0, 0, 0.85);&quot;&gt;: &lt;/span&gt;URLRequest&lt;span style=&quot;color: rgba(0, 0, 0, 0.85);&quot;&gt;) &lt;/span&gt;&lt;span style=&quot;color: rgb(155, 35, 147);&quot;&gt;&lt;b&gt;async&lt;/b&gt;&lt;/span&gt;&lt;span style=&quot;color: rgba(0, 0, 0, 0.85);&quot;&gt; &lt;/span&gt;&lt;span style=&quot;color: rgb(155, 35, 147);&quot;&gt;&lt;b&gt;throws&lt;/b&gt;&lt;/span&gt;&lt;span style=&quot;color: rgba(0, 0, 0, 0.85);&quot;&gt; -&amp;gt; &lt;/span&gt;URLRequest&lt;/p&gt;" style="rounded=1;whiteSpace=wrap;html=1;absoluteArcSize=1;arcSize=14;strokeWidth=2;fillColor=light-dark(#FFFFFF,#121212);" parent="1" vertex="1">
          <mxGeometry x="520" y="270" width="490" height="60" as="geometry" />
        </mxCell>
        <mxCell id="z3iySmhylYlxjhsodRu1-79" style="edgeStyle=orthogonalEdgeStyle;shape=connector;rounded=0;jumpStyle=arc;jumpSize=12;orthogonalLoop=1;jettySize=auto;html=1;entryX=0.25;entryY=0;entryDx=0;entryDy=0;strokeColor=default;align=center;verticalAlign=middle;fontFamily=Helvetica;fontSize=11;fontColor=default;labelBackgroundColor=default;endArrow=classic;exitX=0.75;exitY=1;exitDx=0;exitDy=0;" edge="1" parent="1" source="tvYDaslGmQestlXSa17e-25" target="tvYDaslGmQestlXSa17e-26">
          <mxGeometry relative="1" as="geometry">
            <Array as="points">
              <mxPoint x="547" y="666" />
              <mxPoint x="634" y="666" />
            </Array>
          </mxGeometry>
        </mxCell>
        <mxCell id="z3iySmhylYlxjhsodRu1-76" style="edgeStyle=orthogonalEdgeStyle;shape=connector;rounded=0;jumpStyle=arc;jumpSize=12;orthogonalLoop=1;jettySize=auto;html=1;entryX=0.5;entryY=0;entryDx=0;entryDy=0;strokeColor=default;align=center;verticalAlign=middle;fontFamily=Helvetica;fontSize=11;fontColor=default;labelBackgroundColor=default;endArrow=classic;exitX=0.5;exitY=1;exitDx=0;exitDy=0;" edge="1" parent="1" source="tvYDaslGmQestlXSa17e-23" target="z3iySmhylYlxjhsodRu1-70">
          <mxGeometry relative="1" as="geometry" />
        </mxCell>
        <mxCell id="tvYDaslGmQestlXSa17e-23" value="&lt;p style=&quot;margin: 0px; font-style: normal; font-variant-caps: normal; font-width: normal; line-height: normal; font-family: Menlo; font-size-adjust: none; font-kerning: auto; font-variant-alternates: normal; font-variant-ligatures: normal; font-variant-numeric: normal; font-variant-east-asian: normal; font-variant-position: normal; font-feature-settings: normal; font-optical-sizing: auto; font-variation-settings: normal; color: rgb(11, 79, 121); background-color: rgb(255, 255, 255);&quot;&gt;URLSessionProtocol&lt;/p&gt;&lt;p style=&quot;margin: 0px; font-style: normal; font-variant-caps: normal; font-width: normal; line-height: normal; font-family: Menlo; font-size-adjust: none; font-kerning: auto; font-variant-alternates: normal; font-variant-ligatures: normal; font-variant-numeric: normal; font-variant-east-asian: normal; font-variant-position: normal; font-variant-emoji: normal; font-feature-settings: normal; font-optical-sizing: auto; font-variation-settings: normal; color: rgb(57, 0, 160); background-color: rgb(255, 255, 255);&quot;&gt;&lt;span style=&quot;color: #9b2393&quot;&gt;&lt;b&gt;func&lt;/b&gt;&lt;/span&gt;&lt;span style=&quot;color: rgba(0, 0, 0, 0.85)&quot;&gt; &lt;/span&gt;&lt;span style=&quot;color: #0f68a0&quot;&gt;data&lt;/span&gt;&lt;span style=&quot;color: rgba(0, 0, 0, 0.85)&quot;&gt;(&lt;/span&gt;&lt;span style=&quot;color: #0f68a0&quot;&gt;for&lt;/span&gt;&lt;span style=&quot;color: rgba(0, 0, 0, 0.85)&quot;&gt; request: &lt;/span&gt;URLRequest&lt;span style=&quot;color: rgba(0, 0, 0, 0.85)&quot;&gt;) &lt;/span&gt;&lt;span style=&quot;color: #9b2393&quot;&gt;&lt;b&gt;async&lt;/b&gt;&lt;/span&gt;&lt;span style=&quot;color: rgba(0, 0, 0, 0.85)&quot;&gt; &lt;/span&gt;&lt;span style=&quot;color: #9b2393&quot;&gt;&lt;b&gt;throws&lt;/b&gt;&lt;/span&gt;&lt;span style=&quot;color: rgba(0, 0, 0, 0.85)&quot;&gt; -&amp;gt; (&lt;/span&gt;Data&lt;span style=&quot;color: rgba(0, 0, 0, 0.85)&quot;&gt;, &lt;/span&gt;URLResponse&lt;span style=&quot;color: rgba(0, 0, 0, 0.85)&quot;&gt;)&lt;/span&gt;&lt;/p&gt;" style="rounded=1;whiteSpace=wrap;html=1;absoluteArcSize=1;arcSize=14;strokeWidth=2;fillColor=light-dark(#FFFFFF,#121212);" parent="1" vertex="1">
          <mxGeometry x="495" y="378" width="540" height="60" as="geometry" />
        </mxCell>
        <mxCell id="z3iySmhylYlxjhsodRu1-78" style="edgeStyle=orthogonalEdgeStyle;shape=connector;rounded=0;jumpStyle=arc;jumpSize=12;orthogonalLoop=1;jettySize=auto;html=1;entryX=0.75;entryY=0;entryDx=0;entryDy=0;strokeColor=default;align=center;verticalAlign=middle;fontFamily=Helvetica;fontSize=11;fontColor=default;labelBackgroundColor=default;endArrow=classic;exitX=0.5;exitY=1;exitDx=0;exitDy=0;" edge="1" parent="1" source="tvYDaslGmQestlXSa17e-21" target="tvYDaslGmQestlXSa17e-26">
          <mxGeometry relative="1" as="geometry">
            <Array as="points">
              <mxPoint x="1145" y="666" />
              <mxPoint x="896" y="666" />
            </Array>
          </mxGeometry>
        </mxCell>
        <mxCell id="tvYDaslGmQestlXSa17e-26" value="&lt;p style=&quot;margin: 0px; font-style: normal; font-variant-caps: normal; font-width: normal; line-height: normal; font-family: Menlo; font-size-adjust: none; font-kerning: auto; font-variant-alternates: normal; font-variant-ligatures: normal; font-variant-numeric: normal; font-variant-east-asian: normal; font-variant-position: normal; font-feature-settings: normal; font-optical-sizing: auto; font-variation-settings: normal; color: rgb(11, 79, 121); background-color: rgb(255, 255, 255);&quot;&gt;&lt;span style=&quot;color: rgb(155, 35, 147);&quot;&gt;&lt;span style=&quot;color: rgb(11, 79, 121); background-color: rgb(255, 255, 255);&quot;&gt;NetworkingRetrier&lt;/span&gt;&lt;/span&gt;&lt;/p&gt;&lt;p style=&quot;text-align: left; margin: 0px; font-style: normal; font-variant-caps: normal; font-width: normal; line-height: normal; font-family: Menlo; font-size-adjust: none; font-kerning: auto; font-variant-alternates: normal; font-variant-ligatures: normal; font-variant-numeric: normal; font-variant-east-asian: normal; font-variant-position: normal; font-feature-settings: normal; font-optical-sizing: auto; font-variation-settings: normal; color: rgb(15, 104, 160); background-color: rgb(255, 255, 255);&quot;&gt;&lt;span style=&quot;color: rgb(155, 35, 147);&quot;&gt;&lt;b&gt;func&lt;/b&gt;&lt;/span&gt;&lt;span style=&quot;color: rgba(0, 0, 0, 0.85);&quot;&gt; &lt;/span&gt;retry&lt;span style=&quot;color: rgba(0, 0, 0, 0.85);&quot;&gt;(&lt;/span&gt;urlRequest&lt;span style=&quot;color: rgba(0, 0, 0, 0.85);&quot;&gt;: &lt;/span&gt;&lt;span style=&quot;color: rgb(57, 0, 160);&quot;&gt;URLRequest&lt;/span&gt;&lt;span style=&quot;color: rgba(0, 0, 0, 0.85);&quot;&gt;?,&lt;/span&gt;&lt;/p&gt;&lt;p style=&quot;text-align: left; margin: 0px; font-style: normal; font-variant-caps: normal; font-width: normal; line-height: normal; font-family: Menlo; font-size-adjust: none; font-kerning: auto; font-variant-alternates: normal; font-variant-ligatures: normal; font-variant-numeric: normal; font-variant-east-asian: normal; font-variant-position: normal; font-feature-settings: normal; font-optical-sizing: auto; font-variation-settings: normal; color: rgba(0, 0, 0, 0.85); background-color: rgb(255, 255, 255);&quot;&gt;&amp;nbsp;&amp;nbsp; &amp;nbsp; &amp;nbsp; &amp;nbsp; &amp;nbsp; &lt;span style=&quot;color: rgb(15, 104, 160);&quot;&gt;dueTo&lt;/span&gt; error: &lt;span style=&quot;color: rgb(57, 0, 160);&quot;&gt;Error&lt;/span&gt;,&lt;/p&gt;&lt;p style=&quot;text-align: left; margin: 0px; font-style: normal; font-variant-caps: normal; font-width: normal; line-height: normal; font-family: Menlo; font-size-adjust: none; font-kerning: auto; font-variant-alternates: normal; font-variant-ligatures: normal; font-variant-numeric: normal; font-variant-east-asian: normal; font-variant-position: normal; font-feature-settings: normal; font-optical-sizing: auto; font-variation-settings: normal; color: rgba(0, 0, 0, 0.85); background-color: rgb(255, 255, 255);&quot;&gt;&amp;nbsp;&amp;nbsp; &amp;nbsp; &amp;nbsp; &amp;nbsp; &amp;nbsp; &lt;span style=&quot;color: rgb(15, 104, 160);&quot;&gt;urlResponse&lt;/span&gt;: &lt;span style=&quot;color: rgb(57, 0, 160);&quot;&gt;URLResponse&lt;/span&gt;?,&lt;/p&gt;&lt;p style=&quot;text-align: left; margin: 0px; font-style: normal; font-variant-caps: normal; font-width: normal; line-height: normal; font-family: Menlo; font-size-adjust: none; font-kerning: auto; font-variant-alternates: normal; font-variant-ligatures: normal; font-variant-numeric: normal; font-variant-east-asian: normal; font-variant-position: normal; font-feature-settings: normal; font-optical-sizing: auto; font-variation-settings: normal; color: rgb(28, 70, 74); background-color: rgb(255, 255, 255);&quot;&gt;&lt;span style=&quot;color: rgba(0, 0, 0, 0.85);&quot;&gt;&amp;nbsp;&amp;nbsp; &amp;nbsp; &amp;nbsp; &amp;nbsp; &amp;nbsp; &lt;/span&gt;&lt;span style=&quot;color: rgb(15, 104, 160);&quot;&gt;retryCount&lt;/span&gt;&lt;span style=&quot;color: rgba(0, 0, 0, 0.85);&quot;&gt;: &lt;/span&gt;&lt;span style=&quot;color: rgb(57, 0, 160);&quot;&gt;Int&lt;/span&gt;&lt;span style=&quot;color: rgba(0, 0, 0, 0.85);&quot;&gt;) &lt;/span&gt;&lt;span style=&quot;color: rgb(155, 35, 147);&quot;&gt;&lt;b&gt;async&lt;/b&gt;&lt;/span&gt;&lt;span style=&quot;color: rgba(0, 0, 0, 0.85);&quot;&gt; -&amp;gt; &lt;/span&gt;NetworkingRouteRetrierResult&lt;/p&gt;" style="rounded=1;whiteSpace=wrap;html=1;absoluteArcSize=1;arcSize=14;strokeWidth=2;fillColor=light-dark(#FFFFFF,#121212);" parent="1" vertex="1">
          <mxGeometry x="503.1300000000001" y="684" width="523.75" height="100" as="geometry" />
        </mxCell>
        <mxCell id="tvYDaslGmQestlXSa17e-27" value="&lt;p style=&quot;margin: 0px; font-style: normal; font-variant-caps: normal; font-width: normal; line-height: normal; font-family: Menlo; font-size-adjust: none; font-kerning: auto; font-variant-alternates: normal; font-variant-ligatures: normal; font-variant-numeric: normal; font-variant-east-asian: normal; font-variant-position: normal; font-feature-settings: normal; font-optical-sizing: auto; font-variation-settings: normal; color: rgb(11, 79, 121); background-color: rgb(255, 255, 255);&quot;&gt;Repeater&lt;/p&gt;&lt;p style=&quot;text-align: left; margin: 0px; font-style: normal; font-variant-caps: normal; font-width: normal; line-height: normal; font-family: Menlo; font-size-adjust: none; font-kerning: auto; font-variant-alternates: normal; font-variant-ligatures: normal; font-variant-numeric: normal; font-variant-east-asian: normal; font-variant-position: normal; font-feature-settings: normal; font-optical-sizing: auto; font-variation-settings: normal; color: rgba(0, 0, 0, 0.85); background-color: rgb(255, 255, 255);&quot;&gt;&lt;span style=&quot;color: rgb(155, 35, 147);&quot;&gt;&lt;b&gt;typealias&lt;/b&gt;&lt;/span&gt; &lt;span style=&quot;color: rgb(11, 79, 121);&quot;&gt;Repeater&lt;/span&gt; = &lt;span style=&quot;color: rgb(155, 35, 147);&quot;&gt;&lt;b&gt;@Sendable&lt;/b&gt;&lt;/span&gt; (_ &lt;span style=&quot;color: rgb(50, 109, 116);&quot;&gt;result&lt;/span&gt;: &lt;span style=&quot;color: rgb(57, 0, 160);&quot;&gt;Result&lt;/span&gt;&amp;lt;ResponseSerializer.&lt;span style=&quot;color: rgb(28, 70, 74);&quot;&gt;SerializedObject&lt;/span&gt;, &lt;span style=&quot;color: rgb(57, 0, 160);&quot;&gt;Error&lt;/span&gt;&amp;gt;,&lt;/p&gt;&lt;p style=&quot;text-align: left; margin: 0px; font-style: normal; font-variant-caps: normal; font-width: normal; line-height: normal; font-family: Menlo; font-size-adjust: none; font-kerning: auto; font-variant-alternates: normal; font-variant-ligatures: normal; font-variant-numeric: normal; font-variant-east-asian: normal; font-variant-position: normal; font-feature-settings: normal; font-optical-sizing: auto; font-variation-settings: normal; color: rgba(0, 0, 0, 0.85); background-color: rgb(255, 255, 255);&quot;&gt;&amp;nbsp; &amp;nbsp; &amp;nbsp; &amp;nbsp; &amp;nbsp; &amp;nbsp; &amp;nbsp; &amp;nbsp; &amp;nbsp; &amp;nbsp; &amp;nbsp; &amp;nbsp; &amp;nbsp; &amp;nbsp; &amp;nbsp; &amp;nbsp; _ &lt;span style=&quot;color: rgb(108, 54, 169);&quot;&gt;response&lt;/span&gt;: &lt;span style=&quot;color: rgb(57, 0, 160);&quot;&gt;URLResponse&lt;/span&gt;?,&lt;/p&gt;&lt;p style=&quot;text-align: left; margin: 0px; font-style: normal; font-variant-caps: normal; font-width: normal; line-height: normal; font-family: Menlo; font-size-adjust: none; font-kerning: auto; font-variant-alternates: normal; font-variant-ligatures: normal; font-variant-numeric: normal; font-variant-east-asian: normal; font-variant-position: normal; font-feature-settings: normal; font-optical-sizing: auto; font-variation-settings: normal; color: rgba(0, 0, 0, 0.85); background-color: rgb(255, 255, 255);&quot;&gt;&amp;nbsp; &amp;nbsp; &amp;nbsp; &amp;nbsp; &amp;nbsp; &amp;nbsp; &amp;nbsp; &amp;nbsp; &amp;nbsp; &amp;nbsp; &amp;nbsp; &amp;nbsp; &amp;nbsp; &amp;nbsp; &amp;nbsp; &amp;nbsp; _ &lt;span style=&quot;color: rgb(108, 54, 169);&quot;&gt;repeatCount&lt;/span&gt;: &lt;span style=&quot;color: rgb(57, 0, 160);&quot;&gt;Int&lt;/span&gt;) &lt;span style=&quot;color: rgb(155, 35, 147);&quot;&gt;&lt;b&gt;async&lt;/b&gt;&lt;/span&gt; -&amp;gt; &lt;span style=&quot;color: rgb(28, 70, 74);&quot;&gt;NetworkingRouteRetrierResult&lt;/span&gt;&lt;/p&gt;" style="rounded=1;whiteSpace=wrap;html=1;absoluteArcSize=1;arcSize=14;strokeWidth=2;fillColor=light-dark(#FFFFFF,#121212);" parent="1" vertex="1">
          <mxGeometry x="411.56999999999994" y="830" width="706.87" height="100" as="geometry" />
        </mxCell>
        <mxCell id="tvYDaslGmQestlXSa17e-30" style="edgeStyle=orthogonalEdgeStyle;rounded=0;orthogonalLoop=1;jettySize=auto;html=1;jumpStyle=none;exitX=1;exitY=0.5;exitDx=0;exitDy=0;entryX=1;entryY=0.5;entryDx=0;entryDy=0;" parent="1" source="tvYDaslGmQestlXSa17e-27" target="tvYDaslGmQestlXSa17e-6" edge="1">
          <mxGeometry relative="1" as="geometry">
            <mxPoint x="960" y="210" as="targetPoint" />
            <Array as="points">
              <mxPoint x="1536" y="880" />
              <mxPoint x="1536" y="192" />
            </Array>
            <mxPoint x="845.0100000000002" y="1219.9999999999995" as="sourcePoint" />
          </mxGeometry>
        </mxCell>
        <mxCell id="tvYDaslGmQestlXSa17e-37" style="edgeStyle=orthogonalEdgeStyle;rounded=0;orthogonalLoop=1;jettySize=auto;html=1;entryX=0.5;entryY=0;entryDx=0;entryDy=0;" parent="1" source="tvYDaslGmQestlXSa17e-27" target="tvYDaslGmQestlXSa17e-38" edge="1">
          <mxGeometry relative="1" as="geometry">
            <mxPoint x="765" y="1034" as="targetPoint" />
          </mxGeometry>
        </mxCell>
        <mxCell id="tvYDaslGmQestlXSa17e-38" value="&lt;p style=&quot;margin: 0px; font-style: normal; font-variant-caps: normal; font-width: normal; line-height: normal; font-family: Menlo; font-size-adjust: none; font-kerning: auto; font-variant-alternates: normal; font-variant-ligatures: normal; font-variant-numeric: normal; font-variant-east-asian: normal; font-variant-position: normal; font-feature-settings: normal; font-optical-sizing: auto; font-variation-settings: normal; color: rgb(11, 79, 121); background-color: rgb(255, 255, 255);&quot;&gt;&lt;br&gt;&lt;/p&gt;&lt;p style=&quot;text-align: left; margin: 0px; font-style: normal; font-variant-caps: normal; font-width: normal; line-height: normal; font-family: Menlo; font-size-adjust: none; font-kerning: auto; font-variant-alternates: normal; font-variant-ligatures: normal; font-variant-numeric: normal; font-variant-east-asian: normal; font-variant-position: normal; font-feature-settings: normal; font-optical-sizing: auto; font-variation-settings: normal; background-color: rgb(255, 255, 255);&quot;&gt;&lt;span&gt;&lt;b style=&quot;caret-color: rgb(252, 149, 245);&quot;&gt;&lt;b style=&quot;caret-color: rgb(252, 149, 245); color: rgb(155, 35, 147);&quot;&gt;return&lt;/b&gt;&amp;nbsp;&lt;/b&gt;Result&lt;/span&gt;&amp;lt;ResponseSerializer.&lt;span style=&quot;color: rgb(28, 70, 74);&quot;&gt;SerializedObject&lt;/span&gt;, &lt;span style=&quot;color: rgb(57, 0, 160);&quot;&gt;Error&lt;/span&gt;&amp;gt;&lt;/p&gt;" style="rounded=1;whiteSpace=wrap;html=1;absoluteArcSize=1;arcSize=14;strokeWidth=2;verticalAlign=middle;spacingTop=-17;fillColor=light-dark(#FFFFFF,#121212);" parent="1" vertex="1">
          <mxGeometry x="549.39" y="978" width="431.22" height="52" as="geometry" />
        </mxCell>
        <mxCell id="z3iySmhylYlxjhsodRu1-77" style="edgeStyle=orthogonalEdgeStyle;shape=connector;rounded=0;jumpStyle=arc;jumpSize=12;orthogonalLoop=1;jettySize=auto;html=1;entryX=0.75;entryY=0;entryDx=0;entryDy=0;strokeColor=default;align=center;verticalAlign=middle;fontFamily=Helvetica;fontSize=11;fontColor=default;labelBackgroundColor=default;endArrow=classic;" edge="1" parent="1" source="z3iySmhylYlxjhsodRu1-70" target="tvYDaslGmQestlXSa17e-25">
          <mxGeometry relative="1" as="geometry" />
        </mxCell>
        <mxCell id="z3iySmhylYlxjhsodRu1-70" value="&lt;p style=&quot;margin: 0px; font-style: normal; font-variant-caps: normal; font-width: normal; line-height: normal; font-family: Menlo; font-size-adjust: none; font-kerning: auto; font-variant-alternates: normal; font-variant-ligatures: normal; font-variant-numeric: normal; font-variant-east-asian: normal; font-variant-position: normal; font-feature-settings: normal; font-optical-sizing: auto; font-variation-settings: normal; color: rgb(11, 79, 121); background-color: rgb(255, 255, 255);&quot;&gt;NetworkingRoute&lt;br&gt;&lt;/p&gt;&lt;p style=&quot;margin: 0px; font-style: normal; font-variant-caps: normal; font-width: normal; line-height: normal; font-family: Menlo; font-size-adjust: none; font-kerning: auto; font-variant-alternates: normal; font-variant-ligatures: normal; font-variant-numeric: normal; font-variant-east-asian: normal; font-variant-position: normal; font-feature-settings: normal; font-optical-sizing: auto; font-variation-settings: normal; color: rgb(57, 0, 160); background-color: rgb(255, 255, 255);&quot;&gt;&lt;span style=&quot;color: rgb(155, 35, 147);&quot;&gt;&lt;b&gt;func&lt;/b&gt;&lt;/span&gt;&lt;span style=&quot;color: rgba(0, 0, 0, 0.85);&quot;&gt; &lt;/span&gt;&lt;span style=&quot;color: rgb(15, 104, 160);&quot;&gt;validate&lt;/span&gt;&lt;span style=&quot;color: rgba(0, 0, 0, 0.85);&quot;&gt;(&lt;/span&gt;&lt;span style=&quot;color: rgb(15, 104, 160);&quot;&gt;responseResult&lt;/span&gt;&lt;span style=&quot;color: rgba(0, 0, 0, 0.85);&quot;&gt;: &lt;/span&gt;Result&lt;span style=&quot;color: rgba(0, 0, 0, 0.85);&quot;&gt;&amp;lt;(&lt;/span&gt;Data&lt;span style=&quot;color: rgba(0, 0, 0, 0.85);&quot;&gt;, &lt;/span&gt;URLResponse&lt;span style=&quot;color: rgba(0, 0, 0, 0.85);&quot;&gt;), &lt;/span&gt;Error&lt;span style=&quot;color: rgba(0, 0, 0, 0.85);&quot;&gt;&amp;gt;) &lt;/span&gt;&lt;span style=&quot;color: rgb(155, 35, 147);&quot;&gt;&lt;b&gt;async&lt;/b&gt;&lt;/span&gt;&lt;span style=&quot;color: rgba(0, 0, 0, 0.85);&quot;&gt; &lt;/span&gt;&lt;span style=&quot;color: rgb(155, 35, 147);&quot;&gt;&lt;b&gt;throws&lt;/b&gt;&lt;/span&gt;&lt;/p&gt;" style="rounded=1;whiteSpace=wrap;html=1;absoluteArcSize=1;arcSize=14;strokeWidth=2;fillColor=light-dark(#FFFFFF,#121212);spacingBottom=0;" vertex="1" parent="1">
          <mxGeometry x="467.25" y="486" width="595.5" height="60" as="geometry" />
        </mxCell>
        <mxCell id="z3iySmhylYlxjhsodRu1-80" style="edgeStyle=orthogonalEdgeStyle;shape=connector;rounded=0;jumpStyle=arc;jumpSize=12;orthogonalLoop=1;jettySize=auto;html=1;entryX=1;entryY=0.5;entryDx=0;entryDy=0;strokeColor=default;align=center;verticalAlign=middle;fontFamily=Helvetica;fontSize=11;fontColor=default;labelBackgroundColor=default;endArrow=classic;exitX=1;exitY=0.5;exitDx=0;exitDy=0;" edge="1" parent="1" source="tvYDaslGmQestlXSa17e-26" target="tvYDaslGmQestlXSa17e-6">
          <mxGeometry relative="1" as="geometry">
            <Array as="points">
              <mxPoint x="1536" y="734" />
              <mxPoint x="1536" y="192" />
            </Array>
          </mxGeometry>
        </mxCell>
        <mxCell id="z3iySmhylYlxjhsodRu1-82" value="&lt;p style=&quot;margin: 0px; font-style: normal; font-variant-caps: normal; font-width: normal; font-size: 12px; line-height: normal; font-family: Menlo; font-size-adjust: none; font-kerning: auto; font-variant-alternates: normal; font-variant-ligatures: normal; font-variant-numeric: normal; font-variant-east-asian: normal; font-variant-position: normal; font-variant-emoji: normal; font-feature-settings: normal; font-optical-sizing: auto; font-variation-settings: normal; color: rgb(50, 109, 116); background-color: rgb(255, 255, 255);&quot;&gt;&lt;span style=&quot;color: rgba(0, 0, 0, 0.85)&quot;&gt;&amp;nbsp;.&lt;/span&gt;retry&amp;nbsp;&lt;/p&gt;" style="edgeLabel;html=1;align=center;verticalAlign=middle;resizable=0;points=[];fontFamily=Helvetica;fontSize=11;fontColor=default;labelBackgroundColor=default;" vertex="1" connectable="0" parent="1">
          <mxGeometry x="1074" y="734" as="geometry" />
        </mxCell>
        <mxCell id="z3iySmhylYlxjhsodRu1-83" style="edgeStyle=orthogonalEdgeStyle;shape=connector;rounded=0;jumpStyle=arc;jumpSize=12;orthogonalLoop=1;jettySize=auto;html=1;strokeColor=default;align=center;verticalAlign=middle;fontFamily=Helvetica;fontSize=11;fontColor=default;labelBackgroundColor=default;endArrow=classic;exitX=0.5;exitY=1;exitDx=0;exitDy=0;entryX=0.5;entryY=0;entryDx=0;entryDy=0;" edge="1" parent="1" source="tvYDaslGmQestlXSa17e-26" target="tvYDaslGmQestlXSa17e-27">
          <mxGeometry relative="1" as="geometry">
            <mxPoint x="2394" y="1176" as="sourcePoint" />
            <mxPoint x="1422" y="1134" as="targetPoint" />
          </mxGeometry>
        </mxCell>
        <mxCell id="z3iySmhylYlxjhsodRu1-84" value="&lt;p style=&quot;margin: 0px; font-style: normal; font-variant-caps: normal; font-width: normal; font-size: 12px; line-height: normal; font-family: Menlo; font-size-adjust: none; font-kerning: auto; font-variant-alternates: normal; font-variant-ligatures: normal; font-variant-numeric: normal; font-variant-east-asian: normal; font-variant-position: normal; font-variant-emoji: normal; font-feature-settings: normal; font-optical-sizing: auto; font-variation-settings: normal; color: rgb(50, 109, 116); background-color: rgb(255, 255, 255);&quot;&gt;&lt;span style=&quot;color: rgba(0, 0, 0, 0.85)&quot;&gt;.&lt;/span&gt;doNotRetry&lt;/p&gt;" style="edgeLabel;html=1;align=center;verticalAlign=middle;resizable=0;points=[];fontFamily=Helvetica;fontSize=11;fontColor=default;labelBackgroundColor=default;" vertex="1" connectable="0" parent="z3iySmhylYlxjhsodRu1-83">
          <mxGeometry x="-0.6863" relative="1" as="geometry">
            <mxPoint y="13" as="offset" />
          </mxGeometry>
        </mxCell>
        <mxCell id="z3iySmhylYlxjhsodRu1-85" value="&lt;p style=&quot;margin: 0px; font-style: normal; font-variant-caps: normal; font-width: normal; font-size: 12px; line-height: normal; font-family: Menlo; font-size-adjust: none; font-kerning: auto; font-variant-alternates: normal; font-variant-ligatures: normal; font-variant-numeric: normal; font-variant-east-asian: normal; font-variant-position: normal; font-variant-emoji: normal; font-feature-settings: normal; font-optical-sizing: auto; font-variation-settings: normal; color: rgb(50, 109, 116); background-color: rgb(255, 255, 255);&quot;&gt;&lt;span style=&quot;color: rgba(0, 0, 0, 0.85)&quot;&gt;.&lt;/span&gt;doNotRetry&lt;/p&gt;" style="edgeLabel;html=1;align=center;verticalAlign=middle;resizable=0;points=[];fontFamily=Helvetica;fontSize=11;fontColor=default;labelBackgroundColor=default;" vertex="1" connectable="0" parent="1">
          <mxGeometry x="765" y="952" as="geometry" />
        </mxCell>
        <mxCell id="z3iySmhylYlxjhsodRu1-87" value="&lt;p style=&quot;margin: 0px; font-style: normal; font-variant-caps: normal; font-width: normal; font-size: 12px; line-height: normal; font-family: Menlo; font-size-adjust: none; font-kerning: auto; font-variant-alternates: normal; font-variant-ligatures: normal; font-variant-numeric: normal; font-variant-east-asian: normal; font-variant-position: normal; font-variant-emoji: normal; font-feature-settings: normal; font-optical-sizing: auto; font-variation-settings: normal; color: rgb(50, 109, 116); background-color: rgb(255, 255, 255);&quot;&gt;&lt;span style=&quot;color: rgba(0, 0, 0, 0.85)&quot;&gt;&amp;nbsp;.&lt;/span&gt;retry&amp;nbsp;&lt;/p&gt;" style="edgeLabel;html=1;align=center;verticalAlign=middle;resizable=0;points=[];fontFamily=Helvetica;fontSize=11;fontColor=default;labelBackgroundColor=default;" vertex="1" connectable="0" parent="1">
          <mxGeometry x="1164" y="880" as="geometry" />
        </mxCell>
        <mxCell id="tvYDaslGmQestlXSa17e-21" value="&lt;p style=&quot;margin: 0px; font-style: normal; font-variant-caps: normal; font-width: normal; line-height: normal; font-family: Menlo; font-size-adjust: none; font-kerning: auto; font-variant-alternates: normal; font-variant-ligatures: normal; font-variant-numeric: normal; font-variant-east-asian: normal; font-variant-position: normal; font-feature-settings: normal; font-optical-sizing: auto; font-variation-settings: normal; color: rgb(11, 79, 121); background-color: rgb(255, 255, 255);&quot;&gt;NetworkingRoute&lt;/p&gt;&lt;p style=&quot;margin: 0px; font-style: normal; font-variant-caps: normal; font-width: normal; line-height: normal; font-family: Menlo; font-size-adjust: none; font-kerning: auto; font-variant-alternates: normal; font-variant-ligatures: normal; font-variant-numeric: normal; font-variant-east-asian: normal; font-variant-position: normal; font-variant-emoji: normal; font-feature-settings: normal; font-optical-sizing: auto; font-variation-settings: normal; color: rgba(0, 0, 0, 0.85); background-color: rgb(255, 255, 255);&quot;&gt;&lt;span style=&quot;color: #9b2393&quot;&gt;&lt;b&gt;var&lt;/b&gt;&lt;/span&gt; &lt;span style=&quot;color: #0f68a0&quot;&gt;mockSerializedResult&lt;/span&gt;: &lt;span style=&quot;color: #3900a0&quot;&gt;Result&lt;/span&gt;&amp;lt;ResponseSerializer.&lt;span style=&quot;color: #1c464a&quot;&gt;SerializedObject&lt;/span&gt;, &lt;span style=&quot;color: #3900a0&quot;&gt;Error&lt;/span&gt;&amp;gt;? { &lt;span style=&quot;color: #9b2393&quot;&gt;&lt;b&gt;get&lt;/b&gt;&lt;/span&gt; &lt;span style=&quot;color: #9b2393&quot;&gt;&lt;b&gt;async&lt;/b&gt;&lt;/span&gt; }&lt;/p&gt;" style="rounded=1;whiteSpace=wrap;html=1;absoluteArcSize=1;arcSize=14;strokeWidth=2;fillColor=light-dark(#FFFFFF,#121212);" parent="1" vertex="1">
          <mxGeometry x="780" y="588" width="730" height="60" as="geometry" />
        </mxCell>
        <mxCell id="tvYDaslGmQestlXSa17e-25" value="&lt;p style=&quot;margin: 0px; font-style: normal; font-variant-caps: normal; font-width: normal; line-height: normal; font-family: Menlo; font-size-adjust: none; font-kerning: auto; font-variant-alternates: normal; font-variant-ligatures: normal; font-variant-numeric: normal; font-variant-east-asian: normal; font-variant-position: normal; font-feature-settings: normal; font-optical-sizing: auto; font-variation-settings: normal; color: rgb(11, 79, 121); background-color: rgb(255, 255, 255);&quot;&gt;&lt;span style=&quot;color: rgb(155, 35, 147);&quot;&gt;&lt;span style=&quot;color: rgb(11, 79, 121); background-color: rgb(255, 255, 255);&quot;&gt;NetworkingResponseSerializer&lt;/span&gt;&lt;/span&gt;&lt;/p&gt;&lt;p style=&quot;margin: 0px; font-style: normal; font-variant-caps: normal; font-width: normal; line-height: normal; font-family: Menlo; font-size-adjust: none; font-kerning: auto; font-variant-alternates: normal; font-variant-ligatures: normal; font-variant-numeric: normal; font-variant-east-asian: normal; font-variant-position: normal; font-feature-settings: normal; font-optical-sizing: auto; font-variation-settings: normal; color: rgb(57, 0, 160); background-color: rgb(255, 255, 255);&quot;&gt;&lt;span style=&quot;color: rgb(155, 35, 147);&quot;&gt;&lt;b&gt;func&lt;/b&gt;&lt;/span&gt;&lt;span style=&quot;color: rgba(0, 0, 0, 0.85);&quot;&gt; &lt;/span&gt;&lt;span style=&quot;color: rgb(15, 104, 160);&quot;&gt;serialize&lt;/span&gt;&lt;span style=&quot;color: rgba(0, 0, 0, 0.85);&quot;&gt;(&lt;/span&gt;&lt;span style=&quot;color: rgb(15, 104, 160);&quot;&gt;responseResult&lt;/span&gt;&lt;span style=&quot;color: rgba(0, 0, 0, 0.85);&quot;&gt;: &lt;/span&gt;Result&lt;span style=&quot;color: rgba(0, 0, 0, 0.85);&quot;&gt;&amp;lt;(&lt;/span&gt;Data&lt;span style=&quot;color: rgba(0, 0, 0, 0.85);&quot;&gt;, &lt;/span&gt;URLResponse&lt;span style=&quot;color: rgba(0, 0, 0, 0.85);&quot;&gt;), &lt;/span&gt;Error&lt;span style=&quot;color: rgba(0, 0, 0, 0.85);&quot;&gt;&amp;gt;) &lt;/span&gt;&lt;span style=&quot;color: rgb(155, 35, 147);&quot;&gt;&lt;b&gt;async&lt;/b&gt;&lt;/span&gt;&lt;span style=&quot;color: rgba(0, 0, 0, 0.85);&quot;&gt; -&amp;gt; &lt;/span&gt;Result&lt;span style=&quot;color: rgba(0, 0, 0, 0.85);&quot;&gt;&amp;lt;&lt;/span&gt;&lt;span style=&quot;color: rgb(28, 70, 74);&quot;&gt;SerializedObject&lt;/span&gt;&lt;span style=&quot;color: rgba(0, 0, 0, 0.85);&quot;&gt;, &lt;/span&gt;Error&lt;span style=&quot;color: rgba(0, 0, 0, 0.85);&quot;&gt;&amp;gt;&lt;/span&gt;&lt;/p&gt;" style="rounded=1;whiteSpace=wrap;html=1;absoluteArcSize=1;arcSize=14;strokeWidth=2;fillColor=light-dark(#FFFFFF,#121212);" parent="1" vertex="1">
          <mxGeometry x="-66" y="588" width="817.5" height="60" as="geometry" />
        </mxCell>
      </root>
    </mxGraphModel>
  </diagram>
</mxfile>
